<svg xmlns="http://www.w3.org/2000/svg" fill="none" viewBox="0 0 70.781 30.07"><path fill="#31261A" fill-rule="evenodd" d="m3.25 6.492-1.188-.719C1.319 5.32.786 4.875.47 4.438A2.576 2.576 0 0 1 0 2.913C0 2.054.297 1.357.89.82 1.49.284 2.267.016 3.22.016c.911 0 1.747.255 2.508.765v1.774c-.787-.756-1.633-1.133-2.54-1.133-.51 0-.93.12-1.257.36-.328.234-.492.536-.492.905 0 .329.12.636.359.922.24.287.627.586 1.164.899l1.195.703c1.334.792 2 1.802 2 3.031 0 .875-.294 1.586-.883 2.133-.583.547-1.343.82-2.28.82-1.079 0-2.06-.33-2.946-.992V8.22C.89 9.286 1.867 9.82 2.977 9.82c.49 0 .895-.135 1.218-.406.328-.276.492-.62.492-1.031 0-.667-.479-1.297-1.437-1.89ZM15.57.156h1.563V11.07H15.57V6.32H9.437v4.75H7.875V.156h1.563v4.719h6.132V.156ZM24.906 0c1.688 0 3.091.534 4.211 1.602 1.125 1.067 1.688 2.406 1.688 4.015 0 1.61-.568 2.943-1.703 4-1.13 1.052-2.558 1.578-4.282 1.578-1.646 0-3.018-.526-4.117-1.578-1.094-1.057-1.64-2.38-1.64-3.969 0-1.63.552-2.979 1.656-4.046C21.823.534 23.219 0 24.906 0Zm.063 1.484c-1.25 0-2.279.391-3.086 1.172-.802.781-1.203 1.779-1.203 2.992 0 1.178.403 2.157 1.21 2.938.808.781 1.818 1.172 3.032 1.172 1.219 0 2.234-.399 3.047-1.195.817-.797 1.226-1.79 1.226-2.977 0-1.156-.409-2.128-1.226-2.914-.813-.792-1.813-1.188-3-1.188Zm7.664 9.586V.14h3.46c1.042 0 1.873.282 2.493.844.62.563.93 1.318.93 2.266 0 .635-.16 1.198-.477 1.688-.318.49-.753.846-1.305 1.07-.552.219-1.343.328-2.375.328h-1.156v4.734h-1.57Zm3.187-9.539h-1.617v3.414h1.711c.636 0 1.125-.148 1.469-.445.344-.302.515-.732.515-1.29 0-1.119-.692-1.679-2.078-1.679ZM10.594 27c0 .932-.32 1.677-.961 2.234-.636.558-1.526.836-2.672.836H.703V19.242h5.234c.678 0 1.266.065 1.766.195.505.13.912.31 1.219.54.307.224.536.49.687.796.151.308.227.644.227 1.008a2.66 2.66 0 0 1-.82 1.93c-.23.213-.461.365-.696.453.74.292 1.302.662 1.688 1.11.39.442.586 1.018.586 1.726ZM6.78 22.36c0-.521-.172-.868-.515-1.04-.344-.172-.88-.258-1.61-.258H3.97v2.594h.703c.745 0 1.281-.086 1.61-.258.333-.171.5-.518.5-1.039Zm.532 4.507c0-.927-.672-1.39-2.016-1.39H3.969v2.773h1.328c1.344 0 2.016-.46 2.016-1.383Zm16.796 3.203h-3.343l-.883-2.195H15.18l-.899 2.195h-3.344l4.79-10.828h3.609l4.773 10.828Zm-4.976-4.078-1.586-3.953-1.602 3.953h3.188Zm17.805 4.078h-3.985L28.813 25v5.07h-3.266V19.242h3.265v4.844l3.922-4.844h3.547l-4.031 5.07 4.688 5.758Zm9.585 0H38.36V19.242h8.032v2.172h-4.766v1.984h4.547v2.18h-4.547v2.313h4.898v2.18Zm12.68 0h-3.508l-.851-1.922c-.313-.703-.594-1.216-.844-1.539-.25-.328-.495-.536-.734-.625-.235-.093-.54-.14-.914-.14h-.368v4.226H48.72V19.242h5.554c.896 0 1.63.182 2.204.547.573.365.984.807 1.234 1.328.255.521.383 1.016.383 1.485 0 .546-.107 1.01-.32 1.39-.209.375-.43.649-.665.82a6.62 6.62 0 0 1-.789.493c.35.203.636.445.86.726.229.276.539.839.93 1.688l1.093 2.351Zm-4.437-7.406c0-.5-.164-.849-.493-1.047-.328-.198-.862-.297-1.601-.297h-.688v2.61h.703c.797 0 1.342-.086 1.633-.258.297-.177.446-.513.446-1.008Zm16.015-3.422L66.54 25.11v4.961h-3.266v-4.898l-4.32-5.93h3.39l2.485 3.406 2.492-3.406h3.461Z"/></svg>